<mxfile host="app.diagrams.net" agent="Mozilla/5.0 (Windows NT 10.0; Win64; x64) AppleWebKit/537.36 (KHTML, like Gecko) Chrome/135.0.0.0 Safari/537.36" version="26.2.14">
  <diagram name="Página-1" id="pnnTzB59WS-dYGW-AvXR">
    <mxGraphModel dx="868" dy="475" grid="1" gridSize="10" guides="1" tooltips="1" connect="1" arrows="1" fold="1" page="1" pageScale="1" pageWidth="827" pageHeight="1169" math="0" shadow="0">
      <root>
        <object label="" id="0">
          <mxCell />
        </object>
        <mxCell id="1" parent="0" />
        <mxCell id="Ddpf18grtgXzZ0Fvp10h-2" value="Merchant" style="shape=umlActor;verticalLabelPosition=bottom;verticalAlign=top;outlineConnect=0;html=1;" vertex="1" parent="1">
          <mxGeometry x="40" y="220" width="30" height="60" as="geometry" />
        </mxCell>
        <mxCell id="Ddpf18grtgXzZ0Fvp10h-11" style="edgeStyle=orthogonalEdgeStyle;rounded=0;orthogonalLoop=1;jettySize=auto;html=1;entryX=0;entryY=0.5;entryDx=0;entryDy=0;" edge="1" parent="1" source="Ddpf18grtgXzZ0Fvp10h-4" target="Ddpf18grtgXzZ0Fvp10h-9">
          <mxGeometry relative="1" as="geometry" />
        </mxCell>
        <mxCell id="Ddpf18grtgXzZ0Fvp10h-13" style="edgeStyle=orthogonalEdgeStyle;rounded=0;orthogonalLoop=1;jettySize=auto;html=1;" edge="1" parent="1" source="Ddpf18grtgXzZ0Fvp10h-4" target="Ddpf18grtgXzZ0Fvp10h-14">
          <mxGeometry relative="1" as="geometry">
            <mxPoint x="250" y="360" as="targetPoint" />
          </mxGeometry>
        </mxCell>
        <mxCell id="Ddpf18grtgXzZ0Fvp10h-18" style="edgeStyle=orthogonalEdgeStyle;rounded=0;orthogonalLoop=1;jettySize=auto;html=1;" edge="1" parent="1" source="Ddpf18grtgXzZ0Fvp10h-4" target="Ddpf18grtgXzZ0Fvp10h-19">
          <mxGeometry relative="1" as="geometry">
            <mxPoint x="250" y="120" as="targetPoint" />
          </mxGeometry>
        </mxCell>
        <mxCell id="Ddpf18grtgXzZ0Fvp10h-21" style="edgeStyle=orthogonalEdgeStyle;rounded=0;orthogonalLoop=1;jettySize=auto;html=1;" edge="1" parent="1" source="Ddpf18grtgXzZ0Fvp10h-4" target="Ddpf18grtgXzZ0Fvp10h-20">
          <mxGeometry relative="1" as="geometry" />
        </mxCell>
        <mxCell id="Ddpf18grtgXzZ0Fvp10h-4" value="Api.Gateway" style="rounded=0;whiteSpace=wrap;html=1;" vertex="1" parent="1">
          <mxGeometry x="190" y="220" width="120" height="60" as="geometry" />
        </mxCell>
        <mxCell id="Ddpf18grtgXzZ0Fvp10h-5" style="edgeStyle=orthogonalEdgeStyle;rounded=0;orthogonalLoop=1;jettySize=auto;html=1;exitX=0.5;exitY=0.5;exitDx=0;exitDy=0;exitPerimeter=0;entryX=0;entryY=0.5;entryDx=0;entryDy=0;" edge="1" parent="1" source="Ddpf18grtgXzZ0Fvp10h-2" target="Ddpf18grtgXzZ0Fvp10h-4">
          <mxGeometry relative="1" as="geometry" />
        </mxCell>
        <mxCell id="Ddpf18grtgXzZ0Fvp10h-6" value="Request" style="edgeLabel;html=1;align=center;verticalAlign=middle;resizable=0;points=[];" vertex="1" connectable="0" parent="Ddpf18grtgXzZ0Fvp10h-5">
          <mxGeometry x="0.054" y="-1" relative="1" as="geometry">
            <mxPoint as="offset" />
          </mxGeometry>
        </mxCell>
        <mxCell id="Ddpf18grtgXzZ0Fvp10h-12" style="edgeStyle=orthogonalEdgeStyle;rounded=0;orthogonalLoop=1;jettySize=auto;html=1;" edge="1" parent="1" source="Ddpf18grtgXzZ0Fvp10h-9" target="Ddpf18grtgXzZ0Fvp10h-4">
          <mxGeometry relative="1" as="geometry" />
        </mxCell>
        <mxCell id="Ddpf18grtgXzZ0Fvp10h-26" value="Simulação de verificações" style="edgeLabel;html=1;align=center;verticalAlign=middle;resizable=0;points=[];" vertex="1" connectable="0" parent="Ddpf18grtgXzZ0Fvp10h-12">
          <mxGeometry x="-0.0091" y="1" relative="1" as="geometry">
            <mxPoint as="offset" />
          </mxGeometry>
        </mxCell>
        <mxCell id="Ddpf18grtgXzZ0Fvp10h-9" value="PSP.Mock" style="rounded=0;whiteSpace=wrap;html=1;" vertex="1" parent="1">
          <mxGeometry x="520" y="220" width="120" height="60" as="geometry" />
        </mxCell>
        <mxCell id="Ddpf18grtgXzZ0Fvp10h-15" style="edgeStyle=orthogonalEdgeStyle;rounded=0;orthogonalLoop=1;jettySize=auto;html=1;" edge="1" parent="1" source="Ddpf18grtgXzZ0Fvp10h-14">
          <mxGeometry relative="1" as="geometry">
            <mxPoint x="55" y="300" as="targetPoint" />
          </mxGeometry>
        </mxCell>
        <mxCell id="Ddpf18grtgXzZ0Fvp10h-16" value="Notifica o Merchant" style="edgeLabel;html=1;align=center;verticalAlign=middle;resizable=0;points=[];" vertex="1" connectable="0" parent="Ddpf18grtgXzZ0Fvp10h-15">
          <mxGeometry x="-0.4463" y="3" relative="1" as="geometry">
            <mxPoint as="offset" />
          </mxGeometry>
        </mxCell>
        <mxCell id="Ddpf18grtgXzZ0Fvp10h-14" value="Notification.Service" style="rounded=0;whiteSpace=wrap;html=1;" vertex="1" parent="1">
          <mxGeometry x="190" y="360" width="120" height="60" as="geometry" />
        </mxCell>
        <mxCell id="Ddpf18grtgXzZ0Fvp10h-19" value="&lt;font style=&quot;font-size: 8px;&quot;&gt;Postgres&lt;br&gt;(merchant,costumers...)&lt;/font&gt;" style="shape=cylinder3;whiteSpace=wrap;html=1;boundedLbl=1;backgroundOutline=1;size=15;" vertex="1" parent="1">
          <mxGeometry x="150" y="50" width="80" height="90" as="geometry" />
        </mxCell>
        <mxCell id="Ddpf18grtgXzZ0Fvp10h-20" value="Mongo&lt;div&gt;(logs)&lt;/div&gt;" style="shape=cylinder3;whiteSpace=wrap;html=1;boundedLbl=1;backgroundOutline=1;size=15;" vertex="1" parent="1">
          <mxGeometry x="300" y="50" width="70" height="90" as="geometry" />
        </mxCell>
        <mxCell id="Ddpf18grtgXzZ0Fvp10h-24" value="Mongo&lt;div&gt;(logs)&lt;/div&gt;" style="shape=cylinder3;whiteSpace=wrap;html=1;boundedLbl=1;backgroundOutline=1;size=15;" vertex="1" parent="1">
          <mxGeometry x="215" y="460" width="70" height="90" as="geometry" />
        </mxCell>
        <mxCell id="Ddpf18grtgXzZ0Fvp10h-25" style="edgeStyle=orthogonalEdgeStyle;rounded=0;orthogonalLoop=1;jettySize=auto;html=1;entryX=0.5;entryY=0;entryDx=0;entryDy=0;entryPerimeter=0;" edge="1" parent="1" source="Ddpf18grtgXzZ0Fvp10h-14" target="Ddpf18grtgXzZ0Fvp10h-24">
          <mxGeometry relative="1" as="geometry" />
        </mxCell>
      </root>
    </mxGraphModel>
  </diagram>
</mxfile>
